<svg xmlns="http://www.w3.org/2000/svg" version="1.1" xmlns:xlink="http://www.w3.org/1999/xlink" width="512" height="512" x="0" y="0" viewBox="0 0 24 24" style="enable-background:new 0 0 512 512" xml:space="preserve" class=""><g transform="matrix(0.999999999999998,0,0,0.999999999999998,3.019806626980426e-14,2.3092638912203256e-14)"><path d="M17.5 13c-3.584 0-6.5-2.916-6.5-6.5S13.916 0 17.5 0 24 2.916 24 6.5 21.084 13 17.5 13zm0-12C14.468 1 12 3.467 12 6.5s2.468 5.5 5.5 5.5S23 9.533 23 6.5 20.532 1 17.5 1z" fill="#dedede" opacity="1" data-original="#000000" class=""></path><path d="M16.5 9a.504.504 0 0 1-.354-.146l-2-2a.5.5 0 0 1 .707-.707l1.622 1.622 3.148-3.598a.5.5 0 0 1 .752.659l-3.5 4a.496.496 0 0 1-.358.17H16.5zM19.5 17h-13a.5.5 0 0 1-.49-.402l-2-10A.5.5 0 0 1 4.5 6h4a.5.5 0 0 1 0 1H5.11l1.8 9h12.18l.277-1.385a.5.5 0 0 1 .981.196l-.357 1.787A.502.502 0 0 1 19.5 17z" fill="#dedede" opacity="1" data-original="#000000" class=""></path><path d="M6.499 17a.5.5 0 0 1-.489-.402L3.531 4.204A1.504 1.504 0 0 0 2.06 2.998h-.001L.501 3H.5a.5.5 0 0 1-.001-1l1.558-.002h.003c1.188 0 2.219.845 2.452 2.01L6.99 16.402a.498.498 0 0 1-.491.598z" fill="#dedede" opacity="1" data-original="#000000" class=""></path><path d="M21.5 19h-17c-.827 0-1.5-.673-1.5-1.5S3.673 16 4.5 16h2a.5.5 0 0 1 0 1h-2a.5.5 0 0 0 0 1h17a.5.5 0 0 1 0 1zM8 24c-1.103 0-2-.897-2-2s.897-2 2-2 2 .897 2 2-.897 2-2 2zm0-3a1.001 1.001 0 0 0 0 2 1.001 1.001 0 0 0 0-2zM17 24c-1.103 0-2-.897-2-2s.897-2 2-2 2 .897 2 2-.897 2-2 2zm0-3a1.001 1.001 0 0 0 0 2 1.001 1.001 0 0 0 0-2z" fill="#dedede" opacity="1" data-original="#000000" class=""></path></g></svg>