<svg xmlns="http://www.w3.org/2000/svg" version="1.1" xmlns:xlink="http://www.w3.org/1999/xlink" width="512" height="512" x="0" y="0" viewBox="0 0 512 512" style="enable-background:new 0 0 512 512" xml:space="preserve" class=""><g><path d="M497 180H317c-8.28 0-15 6.72-15 15v30c0 24.81 20.19 45 45 45h45v63.818l-272 81.06V360h45c24.81 0 45-20.19 45-45v-30c0-8.28-6.72-15-15-15H15c-8.28 0-15 6.72-15 15v30c0 24.81 20.19 45 45 45h45v75c0 10.026 9.676 17.24 19.284 14.375L241 410.122V482h-45c-8.284 0-15 6.716-15 15s6.716 15 15 15h120c8.284 0 15-6.716 15-15s-6.716-15-15-15h-45v-80.818l140.284-41.807A15 15 0 0 0 422 345v-75h45c24.81 0 45-20.19 45-45v-30c0-8.28-6.72-15-15-15z" fill="#cfcfcf" opacity="1" data-original="#000000" class=""></path><path d="M105 240c41.35 0 75-33.65 75-75s-33.65-75-75-75-75 33.65-75 75 33.65 75 75 75zm0-90c8.28 0 15 6.72 15 15s-6.72 15-15 15-15-6.72-15-15 6.72-15 15-15zM347 150c41.35 0 75-33.65 75-75S388.35 0 347 0s-75 33.65-75 75 33.65 75 75 75zm0-90c8.28 0 15 6.72 15 15s-6.72 15-15 15-15-6.72-15-15 6.72-15 15-15z" fill="#cfcfcf" opacity="1" data-original="#000000" class=""></path><path d="M421.94 148.46A74.07 74.07 0 0 0 437 150c41.35 0 75-33.65 75-75S478.35 0 437 0c-5.1 0-10.15.52-15.06 1.54C440.52 20.48 452 46.43 452 75s-11.48 54.52-30.06 73.46z" fill="#cfcfcf" opacity="1" data-original="#000000" class=""></path></g></svg>