<svg xmlns="http://www.w3.org/2000/svg" version="1.1" xmlns:xlink="http://www.w3.org/1999/xlink" width="512" height="512" x="0" y="0" viewBox="0 0 512 512" style="enable-background:new 0 0 512 512" xml:space="preserve" class=""><g><path fill-rule="evenodd" d="M218.253 210.537h13.5v56.531H189.6v-12.112a103.6 103.6 0 0 0 28.65-44.419zM68.263 360.759a13.6 13.6 0 1 1-13.6 13.6 13.6 13.6 0 0 1 13.6-13.6zm219.2 16.443c-29.7-5.365-46.475-11.782-71.266-18.659a7.976 7.976 0 0 1 4.25-15.376c7.129 1.986 12.859 3.7 18.537 5.4 15.6 4.669 30.825 9.226 50.92 12.88a17.962 17.962 0 0 0 13.556-7.519 19.021 19.021 0 0 0 2.137-19.28c-3.264-7.339-11.414-14.445-26.473-19.125l-54.929-14.59a65.477 65.477 0 0 0-23.231-.421c-8.28 1.386-17.155 4.581-27.129 10.27l-70.51 39.08 42.533 87.615 15.959-7.411c24.7-11.19 78.388 9.416 108.509 13.588 32.924 4.562 45.417-4.152 74.021-21.379 83.172-50.065 122.258-82.862 126.787-86.738 6.358-6.009 8.852-12.849 8.55-17.8-.422-6.946-5.63-12.41-11.914-15.338a28.8 28.8 0 0 0-23.961.038c-13.2 7.331-27.026 17.726-41.214 28.395-36.045 27.106-74.311 55.882-115.133 46.383v-.013zm-152.49 74.4L84.506 347.648a11.429 11.429 0 0 0-15.255-5.257l-27.178 13.194a11.428 11.428 0 0 0-5.257 15.255l52.536 108.219a8.02 8.02 0 0 1 .453.915c2.407 5.074 9.623 7.55 14.654 5.058l27.583-13.381a11.34 11.34 0 0 0 5.77-6.51c1.9-5.48-.672-8.841-2.84-13.538zm-66.71-98.842a21.6 21.6 0 0 0-21.6 21.6c0 19.18 23.3 28.854 36.878 15.275s3.9-36.877-15.275-36.877zM404.934 41.937A7.979 7.979 0 0 1 405.747 26l25.422 1.342a7.991 7.991 0 0 1 7.464 9.281l-4.2 25.084a7.984 7.984 0 0 1-15.75-2.625l.682-4.072-59.691 49.115a7.98 7.98 0 0 1-7.917 1.755l-68.213-22.159-68.584 43.669a7.967 7.967 0 1 1-8.562-13.437l71.774-45.7a7.947 7.947 0 0 1 6.744-.858v-.017l67.628 21.969L409.85 42.2l-4.916-.26zM119.8 91.032a87.506 87.506 0 1 0 87.505 87.505A87.506 87.506 0 0 0 119.8 91.032zM94.243 123.2c21.308 0 32.055 25.885 16.97 40.97s-40.97 4.338-40.97-16.97a24 24 0 0 1 24-24zm51.113 62.675c21.308 0 32.055 25.885 16.97 40.97s-40.97 4.338-40.97-16.97a24 24 0 0 1 24-24zm5.658 18.342a8 8 0 1 1-13.658 5.658 8 8 0 0 1 13.658-5.658zm-4.564-87.771a7.965 7.965 0 1 1 13.813 7.937L93.149 240.629a7.966 7.966 0 0 1-13.813-7.938zm-46.55 25.1a8 8 0 1 1-13.657 5.654 8 8 0 0 1 13.657-5.658zm305.026-36.233v161.755h42.15V105.309zm-71.774 53.068H375.3v108.687h-42.15V158.377zm-71.775-29.05v137.737h42.151V129.327z" fill="#cfcfcf" opacity="1" data-original="#000000" class=""></path></g></svg>