<svg xmlns="http://www.w3.org/2000/svg" version="1.1" xmlns:xlink="http://www.w3.org/1999/xlink" width="512" height="512" x="0" y="0" viewBox="0 0 64 64" style="enable-background:new 0 0 512 512" xml:space="preserve" class=""><g><path d="M27.609 45.664a8.061 8.061 0 1 0 4.39-14.823 8.1 8.1 0 0 0-4.39 14.823zM42.881 40.407c.276 8.487 12.584 8.486 12.868 0-.303-8.513-12.564-8.514-12.868 0z" fill="#dedede" opacity="1" data-original="#000000" class=""></path><path d="M55.13 46.492a8.446 8.446 0 0 1-10.862.649c-.694-.645-.832-.742-1.576-.07 2.61 2.477 5.201 6.031 4.708 9.795h9.008a3.536 3.536 0 0 0 2.872-1.486c2.101-3.111-1.652-7.298-4.15-8.888zM41.195 48.407a13.38 13.38 0 0 0-2.693-1.835 11.468 11.468 0 0 1-1.027.768 10.104 10.104 0 0 1-10.943 0 13.28 13.28 0 0 1-1.038-.768 13.381 13.381 0 0 0-2.693 1.835 13.815 13.815 0 0 0-4.08 6.045A4.262 4.262 0 0 0 22.771 60h18.454a4.334 4.334 0 0 0 4.13-3.133c.638-3.175-1.984-6.446-4.16-8.459zM21.305 47.06c-.729-.66-.906-.551-1.576.08a8.447 8.447 0 0 1-10.864-.648c-2.487 1.584-6.243 5.788-4.15 8.888a3.536 3.536 0 0 0 2.874 1.486h9.007c-.503-3.745 2.097-7.314 4.709-9.805z" fill="#dedede" opacity="1" data-original="#000000" class=""></path><path d="M21.115 40.407c-.303-8.513-12.564-8.514-12.868 0 .282 8.483 12.59 8.49 12.868 0z" fill="#dedede" opacity="1" data-original="#000000" class=""></path><path d="M13.883 32.467a1.005 1.005 0 0 0 1.596 0l2.993-3.99a.998.998 0 0 0-1.596-1.197l-1.197 1.596V17.664a.994.994 0 0 1 .997-.998h3.382c1.38 14.867 22.506 14.856 23.88 0h3.382a.994.994 0 0 1 .998.998v11.212L47.12 27.28a.998.998 0 0 0-1.596 1.197l2.992 3.99a1.005 1.005 0 0 0 1.596 0l2.993-3.99a.998.998 0 0 0-1.596-1.197l-1.197 1.596V17.664a2.995 2.995 0 0 0-2.993-2.993H43.91c-1.845-14.226-21.975-14.23-23.821 0h-3.412a2.995 2.995 0 0 0-2.992 2.993v11.212l-1.197-1.596a.998.998 0 0 0-1.596 1.197zm18.115-15.561a3.69 3.69 0 0 1-.997-7.232V7.818a.998.998 0 0 1 1.995 0v1.856a3.675 3.675 0 0 1 2.693 3.54.998.998 0 0 1-1.995 0 1.696 1.696 0 1 0-1.696 1.697 3.695 3.695 0 0 1 .998 7.242v1.845a.998.998 0 0 1-1.995 0v-1.845a3.695 3.695 0 0 1-2.694-3.552.998.998 0 0 1 1.995 0 1.696 1.696 0 1 0 1.696-1.695z" fill="#dedede" opacity="1" data-original="#000000" class=""></path></g></svg>