<svg xmlns="http://www.w3.org/2000/svg" version="1.1" xmlns:xlink="http://www.w3.org/1999/xlink" width="512" height="512" x="0" y="0" viewBox="0 0 512 512" style="enable-background:new 0 0 512 512" xml:space="preserve" class=""><g><path d="M478.032 501H43.711l83.157-22.159-93.701-93.707L1.888 503.181a5.014 5.014 0 0 0-.856 2.809 5.008 5.008 0 0 0 5 5.01h472a5 5 0 1 0 0-10zM317.203 98.031l96.685 96.686-33.668 33.668-96.685-96.686zM490.974 21.017c-26.66-26.659-70.039-26.659-96.699 0l-69.988 69.989 96.7 96.7 69.989-69.988c26.657-26.66 26.657-70.04-.002-96.701z" fill="#dedede" opacity="1" data-original="#000000" class=""></path><path d="m276.473 138.791 96.685 96.685-237.7 237.7-96.686-96.684z" fill="#dedede" opacity="1" data-original="#000000" class=""></path></g></svg>