<svg xmlns="http://www.w3.org/2000/svg" version="1.1" xmlns:xlink="http://www.w3.org/1999/xlink" width="512" height="512" x="0" y="0" viewBox="0 0 511.749 511.749" style="enable-background:new 0 0 512 512" xml:space="preserve" class=""><g><path d="M501.749 167.855c-3.442-56.347-42.155-106.766-99.648-122.422-72.182-19.656-146.632 22.924-166.288 95.106-8.526 31.308-5.337 63.04 6.892 90.546h-.001l-24.219 49.747h62.033c14.767 12.079 31.988 20.982 50.4 25.996 57.592 15.683 116.626-8.255 148.122-55.236M113.747 66.454 36.978 156.08h42.233v125.995h69.071V156.08h42.234zM420.041 114.455 314.374 240.074" style="stroke-width:20;stroke-linecap:round;stroke-linejoin:round;stroke-miterlimit:10;" fill="none" stroke="#dedede" stroke-width="20" stroke-linecap="round" stroke-linejoin="round" stroke-miterlimit="10" data-original="#000000" opacity="1" class=""></path><ellipse cx="326.609" cy="136.71" rx="25.944" ry="25.706" style="stroke-width:20;stroke-linecap:round;stroke-linejoin:round;stroke-miterlimit:10;" fill="none" stroke="#dedede" stroke-width="20" stroke-linecap="round" stroke-linejoin="round" stroke-miterlimit="10" data-original="#000000" opacity="1" class=""></ellipse><ellipse cx="405.907" cy="218.272" rx="25.944" ry="25.706" style="stroke-width:20;stroke-linecap:round;stroke-linejoin:round;stroke-miterlimit:10;" fill="none" stroke="#dedede" stroke-width="20" stroke-linecap="round" stroke-linejoin="round" stroke-miterlimit="10" data-original="#000000" opacity="1" class=""></ellipse><path d="M123.133 471.109H25.036c-8.304 0-15.036-6.732-15.036-15.036v-16.799c0-8.304 6.732-15.036 15.036-15.036h98.098c8.304 0 15.036 6.732 15.036 15.036v16.799c-.001 8.305-6.733 15.036-15.037 15.036z" style="stroke-width:20;stroke-linecap:round;stroke-linejoin:round;stroke-miterlimit:10;" fill="none" stroke="#dedede" stroke-width="20" stroke-linecap="round" stroke-linejoin="round" stroke-miterlimit="10" data-original="#000000" opacity="1" class=""></path><path d="M250.662 471.109h-97.458c-8.304 0-15.036-6.732-15.036-15.036v-16.799c0-8.304 6.732-15.036 15.036-15.036h97.458c8.304 0 15.036 6.732 15.036 15.036v16.799c0 8.305-6.732 15.036-15.036 15.036z" style="stroke-width:20;stroke-linecap:round;stroke-linejoin:round;stroke-miterlimit:10;" fill="none" stroke="#dedede" stroke-width="20" stroke-linecap="round" stroke-linejoin="round" stroke-miterlimit="10" data-original="#000000" opacity="1" class=""></path><path d="M378.191 471.109h-97.458c-8.304 0-15.036-6.732-15.036-15.036v-16.799c0-8.304 6.732-15.036 15.036-15.036h97.458c8.304 0 15.036 6.732 15.036 15.036v16.799c-.001 8.305-6.732 15.036-15.036 15.036zM123.133 424.239H25.036c-8.304 0-15.036-6.732-15.036-15.036v-16.799c0-8.304 6.732-15.036 15.036-15.036h98.098c8.304 0 15.036 6.732 15.036 15.036v16.799c-.001 8.305-6.733 15.036-15.037 15.036z" style="stroke-width:20;stroke-linecap:round;stroke-linejoin:round;stroke-miterlimit:10;" fill="none" stroke="#dedede" stroke-width="20" stroke-linecap="round" stroke-linejoin="round" stroke-miterlimit="10" data-original="#000000" opacity="1" class=""></path><path d="M250.662 424.239h-97.458c-8.304 0-15.036-6.732-15.036-15.036v-16.799c0-8.304 6.732-15.036 15.036-15.036h97.458c8.304 0 15.036 6.732 15.036 15.036v16.799c0 8.305-6.732 15.036-15.036 15.036z" style="stroke-width:20;stroke-linecap:round;stroke-linejoin:round;stroke-miterlimit:10;" fill="none" stroke="#dedede" stroke-width="20" stroke-linecap="round" stroke-linejoin="round" stroke-miterlimit="10" data-original="#000000" opacity="1" class=""></path><path d="M250.662 377.369h-97.458c-8.304 0-15.036-6.732-15.036-15.036v-16.799c0-8.304 6.732-15.036 15.036-15.036h97.458c8.304 0 15.036 6.732 15.036 15.036v16.799c0 8.305-6.732 15.036-15.036 15.036zM497.207 211.721h0" style="stroke-width:20;stroke-linecap:round;stroke-linejoin:round;stroke-miterlimit:10;" fill="none" stroke="#dedede" stroke-width="20" stroke-linecap="round" stroke-linejoin="round" stroke-miterlimit="10" data-original="#000000" opacity="1" class=""></path></g></svg>