<svg xmlns="http://www.w3.org/2000/svg" version="1.1" xmlns:xlink="http://www.w3.org/1999/xlink" width="512" height="512" x="0" y="0" viewBox="0 0 512 512" style="enable-background:new 0 0 512 512" xml:space="preserve" class=""><g><path d="M257 0c-34.416 0-67.933 6.856-99.618 20.376C97.42 45.962 47.174 94.582 20.376 157.382 6.855 189.068 0 222.584 0 257c0 62.27 21.631 121.216 68.535 172.93C118.114 482.95 185.621 512 257 512c142.032 0 255-115.306 255-255C512 114.7 396.38 0 257 0zm-76.396 43.241c-14.77 18.661-26.124 40.894-34.614 62.912-15.77-4.163-30.512-9.198-43.805-15.004 22.396-20.918 49.011-37.366 78.419-47.908zM241.999 242h-91.748c1.16-35.699 6.45-69.912 15.42-100.503 24.229 4.674 49.968 7.493 76.328 8.273V242zM80.639 114.256c16.7 8.133 35.49 15.016 55.772 20.498-9.465 32.894-15.01 69.382-16.172 107.246H30.508c3.161-48.213 21.437-92.361 50.131-127.744zM30.517 272h89.724c1.148 37.232 6.558 73.049 15.781 105.349-20.308 5.512-39.112 12.433-55.814 20.606C51.789 363.006 33.687 319.497 30.517 272zm71.271 149.023c13.271-5.825 27.997-10.879 43.755-15.061 8.426 21.916 19.77 44.11 34.55 62.735-29.379-10.519-55.957-26.885-78.305-47.674zM242 479.501c-31.646-10.444-54.28-49.059-66.827-80.146 21.354-3.925 43.924-6.356 66.827-7.101v87.247zm0-117.272c-26.511.784-52.391 3.634-76.742 8.356-8.72-29.99-13.861-63.532-15.005-98.585H242v90.229zm0-242.483c-22.738-.739-45.146-3.141-66.363-7.016C188.09 81.963 210.593 43.129 242 32.553v87.193zM481.496 242h-89.728c-1.126-37.952-6.511-74.45-15.706-107.278 20.175-5.511 38.916-12.435 55.623-20.618 28.512 35.408 46.674 79.614 49.811 127.896zM410.293 91.001c-13.32 5.919-27.94 11.015-43.532 15.207-8.275-22.011-19.356-44.23-33.935-62.93 29.04 10.519 55.329 26.9 77.467 47.723zM272 32.593c31.175 10.673 53.122 49.596 65.188 80.263-20.769 3.821-42.715 6.167-65.188 6.892V32.593zm0 117.169c25.775-.789 51.009-3.594 74.834-8.234 8.684 30.514 13.802 64.713 14.923 100.473H272v-92.239zm0 122.038h89.756c-1.106 35.11-6.079 68.837-14.519 98.754-23.945-4.688-49.316-7.522-75.237-8.316V271.8zm0 207.661v-87.209c22.637.731 44.739 3.105 65.642 6.976-12.118 30.89-34.186 69.679-65.642 80.233zm61.23-10.765c13.273-16.883 24.797-38.142 34.04-62.771 15.555 4.207 30.135 9.316 43.416 15.245-22.118 20.719-48.404 37.033-77.456 47.526zm98.884-70.59c-16.69-8.213-35.423-15.165-55.598-20.703 8.766-31.569 14.137-67.439 15.257-105.603h89.715c-3.147 47.565-21.136 91.331-49.374 126.306z" fill="#cfcfcf" opacity="1" data-original="#000000" class=""></path></g></svg>