<svg xmlns="http://www.w3.org/2000/svg" version="1.1" xmlns:xlink="http://www.w3.org/1999/xlink" width="512" height="512" x="0" y="0" viewBox="0 0 256 256" style="enable-background:new 0 0 512 512" xml:space="preserve" class=""><g><path d="M128.28 215.4H112a27.23 27.23 0 0 1-27.2-27.2v-25.34l-25.33-.23a27.21 27.21 0 0 1-26.95-27.46l.15-16.24A27.29 27.29 0 0 1 59.91 92h.26l24.67.23V67.54A27.23 27.23 0 0 1 112 40.34h16.24a27.23 27.23 0 0 1 27.21 27.2v25.33l25.33.24a27.23 27.23 0 0 1 27 27.45l-.15 16.25a27.29 27.29 0 0 1-27.2 26.95h-.26l-24.67-.23v24.67a27.23 27.23 0 0 1-27.22 27.2zM59.91 100a19.27 19.27 0 0 0-19.2 19l-.15 16.24a19.21 19.21 0 0 0 19 19.38l33.25.31v33.27A19.22 19.22 0 0 0 112 207.4h16.24a19.23 19.23 0 0 0 19.21-19.2v-32.75l32.93.31a19.27 19.27 0 0 0 19.2-19l.15-16.24a19.23 19.23 0 0 0-19-19.38l-33.26-.31V67.54a19.23 19.23 0 0 0-19.21-19.2H112a19.22 19.22 0 0 0-19.2 19.2v32.75z" fill="#2197c5" opacity="1" data-original="#000000" class=""></path></g></svg>