<svg xmlns="http://www.w3.org/2000/svg" version="1.1" xmlns:xlink="http://www.w3.org/1999/xlink" width="512" height="512" x="0" y="0" viewBox="0 0 512 512" style="enable-background:new 0 0 512 512" xml:space="preserve" class=""><g><path d="M421.731 147.22A79.96 79.96 0 0 1 308.78 34.269a182.476 182.476 0 0 0-52.78-10.1V200h175.831a182.483 182.483 0 0 0-10.1-52.78z" fill="#2197c5" opacity="1" data-original="#000000" class=""></path><path d="M368 24a64 64 0 1 0 64 64 64.072 64.072 0 0 0-64-64zm0 56a24 24 0 0 1 8 46.624V128a8 8 0 0 1-16 0h-8a8 8 0 0 1 0-16h16a8 8 0 0 0 0-16 24 24 0 0 1-8-46.624V48a8 8 0 0 1 16 0h8a8 8 0 0 1 0 16h-16a8 8 0 0 0 0 16zM347.745 368.306a184.824 184.824 0 0 0 34.013-48.483l-33.336-16.668a8 8 0 0 1 7.156-14.31l32.521 16.26A182.808 182.808 0 0 0 399.828 248H234.516zM268.031 369.054a8 8 0 0 1 10.915 2.977l18.754 32.817a184.662 184.662 0 0 0 38.4-25.57L224 260.173v163.644a182.758 182.758 0 0 0 59-12.453l-17.941-31.395a8 8 0 0 1 2.972-10.915zM141.207 121.926a8 8 0 0 1-10.414 12.148l-36.877-31.609A185.442 185.442 0 0 0 62.542 138.6L208 225.87V56.172A182.989 182.989 0 0 0 106.53 92.2zM32 240a183.451 183.451 0 0 0 55.4 131.463l42.2-56.263a8 8 0 1 1 12.8 9.6l-43.046 57.4A183.12 183.12 0 0 0 208 423.815V244.53L54.29 152.3A182.846 182.846 0 0 0 32 240zM24 448h80v32H24zM24 16h80v32H24zM280 464h80v32h-80zM408 368h80v32h-80zM89.75 395.01 70.4 420.8a8 8 0 0 1-12.8-9.6l20.12-26.83q5.805 5.565 12.03 10.64zM94.09 81.54q-6.435 4.965-12.44 10.41l-6.86-5.88a8 8 0 0 1 10.42-12.14zM439.16 339.58a8.02 8.02 0 0 1-10.74 3.58l-32.35-16.17q3.495-7.185 6.42-14.7l33.09 16.55a8.017 8.017 0 0 1 3.58 10.74zM307.97 438.95a8.015 8.015 0 0 1-10.92-2.98l-6.04-10.56q7.47-3.045 14.64-6.65l5.3 9.27a8.006 8.006 0 0 1-2.98 10.92z" fill="#2197c5" opacity="1" data-original="#000000" class=""></path></g></svg>