<svg xmlns="http://www.w3.org/2000/svg" version="1.1" xmlns:xlink="http://www.w3.org/1999/xlink" width="512" height="512" x="0" y="0" viewBox="0 0 512 512" style="enable-background:new 0 0 512 512" xml:space="preserve" class=""><g><path d="M0 108.885v294.23h143.461v-15.208H15.208V124.093h481.584v263.814H163.739v15.208H512v-294.23z" fill="#cfcfcf" opacity="1" data-original="#000000" class=""></path><path d="M430.616 366.333c3.779-22.899 21.702-40.823 44.601-44.601l6.366-1.05V191.319l-6.366-1.05a54.113 54.113 0 0 1-44.601-44.601l-1.05-6.366H82.434l-1.05 6.366c-3.779 22.899-21.702 40.823-44.601 44.601l-6.367 1.05v129.364l6.366 1.05a54.113 54.113 0 0 1 44.601 44.601l1.05 6.366h347.133l1.05-6.367zM95.03 357.492c-6.347-24.164-25.243-43.061-49.406-49.406v-104.17c24.163-6.347 43.06-25.242 49.406-49.406h103.421c-35.295 20.092-59.15 58.056-59.15 101.492s23.855 81.399 59.15 101.492H95.03zM154.508 256c0-55.963 45.529-101.492 101.492-101.492 55.962 0 101.492 45.529 101.492 101.492 0 55.962-45.529 101.492-101.492 101.492S154.508 311.963 154.508 256zM313.55 357.491c35.295-20.092 59.15-58.056 59.15-101.492 0-43.436-23.855-81.399-59.15-101.492h103.42v.001c6.347 24.163 25.243 43.06 49.406 49.406v104.169c-24.163 6.347-43.06 25.242-49.406 49.406H313.55z" fill="#cfcfcf" opacity="1" data-original="#000000" class=""></path><path d="M92.462 230.653c-13.976 0-25.347 11.37-25.347 25.347s11.37 25.347 25.347 25.347c13.976 0 25.346-11.37 25.346-25.347s-11.37-25.347-25.346-25.347zm0 35.486c-5.59 0-10.139-4.548-10.139-10.139s4.548-10.139 10.139-10.139c5.59 0 10.139 4.548 10.139 10.139s-4.548 10.139-10.139 10.139zM444.884 256c0-13.976-11.37-25.347-25.346-25.347s-25.347 11.37-25.347 25.347 11.37 25.347 25.347 25.347 25.346-11.371 25.346-25.347zm-25.346 10.139c-5.59 0-10.139-4.548-10.139-10.139s4.548-10.139 10.139-10.139c5.59 0 10.139 4.548 10.139 10.139s-4.549 10.139-10.139 10.139zM287.396 226.397h15.208c0-21.196-14.424-34.616-39-36.866v-17.682h-15.208v17.682c-24.577 2.25-39 15.67-39 36.866s14.424 34.616 39 36.867v43.96c-15.795-1.672-23.792-8.922-23.792-21.621h-15.208c0 21.196 14.424 34.616 39 36.866v17.682h15.208V322.47c24.577-2.25 39-15.67 39-36.866s-14.424-34.616-39-36.867v-43.96c15.795 1.672 23.792 8.922 23.792 21.62zm-39 21.621c-15.795-1.672-23.792-8.922-23.792-21.621s7.998-19.948 23.792-21.621v43.242zm39 37.585c0 12.699-7.998 19.948-23.792 21.621v-43.241c15.795 1.671 23.792 8.921 23.792 21.62z" fill="#cfcfcf" opacity="1" data-original="#000000" class=""></path></g></svg>