<svg xmlns="http://www.w3.org/2000/svg" version="1.1" xmlns:xlink="http://www.w3.org/1999/xlink" width="512" height="512" x="0" y="0" viewBox="0 0 59.707 59.707" style="enable-background:new 0 0 512 512" xml:space="preserve" class=""><g><path d="M43.287 31.943c-2.296-1.568-4.96-2.438-7.732-3.096.003-.453.009-.904.009-1.357-.003-3.689-.371-7.355-.716-11.025v-.043c.002-.225.012-.457.025-.693 3.032.525 5.947 1.58 8.457 3.006.04.021.085.035.129.053.391.527 1.559.623 1.848-.137.865-2.275 2.273-4.975.115-7.09-1.5-1.469-4.551-2.5-7.15-2.902a20.04 20.04 0 0 0-2.465-.676c.082-1.709-.071-3.35-.74-4.746-.021-1.074-.298-2.156-1.395-2.414-3.665-.863-7.019-.924-10.79-.732-.613.031-.935.424-.974.814l-.007.035v.045a.646.646 0 0 0 .109.468.706.706 0 0 0-.166.604c.4 2.098.921 4.178 1.472 6.254-.161.035-.323.063-.484.1-3.809.877-6.599 2.475-8.395 4.576-3.216 2.139-5.552 6.107-3.47 9.389.064.102.138.197.207.293.308 2.629 2.818 4.531 6.187 5.858.584.232 1.174.432 1.764.621 1.026.371 2.05.682 2.978.949.668.193 1.34.367 2.015.533 1.105.463 2.244.9 3.39 1.334.473 4.457 1.107 8.914 1.597 13.375-4.625-.037-8.194-1.602-12.382-3.1-1.497-.533-2.359 1.008-2.781 2.252-1.344 1.93-1.844 3.479-1.209 4.627-.304.422-.212 1.027.539 1.172.474.092.934.186 1.387.281.704.271 1.581.488 2.663.643 3.177 2.039 7.85 2.248 12.399 1.91.078 1.779.118 3.559.065 5.344-.015.492.445.777.985.852 1.955.271 3.881.326 5.856.389.799.025 1.118-.588.942-1.072a.625.625 0 0 0 .113-.4 333.48 333.48 0 0 0-.462-6.045c3.016-.627 6.296-2.252 8.711-4.387.372.076.787-.002 1.061-.326 4.754-5.618 2.442-11.339-3.705-15.536zM17.185 13.271c-1.022.879-1.88 1.799-2.549 2.771a8.865 8.865 0 0 1 .661-1.5 8.36 8.36 0 0 1 1.066-.678c.483-.254.55-.686.383-1.033.77-.623 1.696-1.135 2.703-1.561a17.477 17.477 0 0 0-2.264 2.001zm1.148 2.594a6.422 6.422 0 0 0-.795.684c.169-.246.339-.484.504-.705 1.437-1.926 3.861-2.783 6.422-3.287l.135.51c-2.333.521-4.422 1.462-6.266 2.798zm1.862 2.549c1.333-1.107 3.4-1.91 5.181-2.389.896 3.607 1.299 7.289 1.647 10.965-4.426-1.746-7.906-4.066-6.828-8.576zM27.413 3.34c-.142-.457-.691-.645-1.177-.594.005-.082.019-.164.027-.246.591.031 1.194.057 1.792.09.082 1.103.199 2.203.338 3.301.02.387.029.773.035 1.158-.315-1.239-.634-2.477-1.015-3.709zM16.32 45.679c.021.012.028.029.05.041.309.168.636.314.96.467.04.094.095.189.186.277.331.32.688.613 1.056.891a10.204 10.204 0 0 1-2.34-1.021c.027-.219.062-.436.088-.655zm5.763 4.186c-1.123-.045-2.245-.107-3.359-.164-.12-.006-.227-.016-.34-.025-.445-.311-.865-.646-1.22-1.043 1.602.588 3.352.9 5.139 1.066a.817.817 0 0 0-.22.166zm2.752-3.254a37.66 37.66 0 0 0 4.432.314l.001.016a31.785 31.785 0 0 1-4.433-.33zm4.15-31.184h.014c1.031 2.816 1.425 5.981 1.59 8.928-.587-2.971-1.139-5.943-1.604-8.928zm3.997 9.137c.055 1.254.12 2.508.196 3.762a23.757 23.757 0 0 1-.367-.072c.059-1.229.117-2.459.171-3.69zm-.188 16.203c.271.756.531 1.516.781 2.277.075.635.156 1.285.238 1.945-.374.061-.748.123-1.123.164.048-1.464.082-2.927.104-4.386zm.969 16.121c-.474-.889-.528-2.482-.422-4.135.341-.043.674-.088 1.01-.131-.041 1.479-.214 2.919-.588 4.266zm1.792-23.66c1.206.496 2.358 1.074 3.404 1.814.408.289.764.602 1.089.93.101.145.196.293.286.44-1.387-1.115-3.009-2.045-4.755-2.881l-.024-.303zm4.683 11.533c-1.088.527-2.291.951-3.561 1.287l-.001-.025c1.564-.461 3.056-1.172 4.237-2.104-.2.294-.427.573-.675.842zm-.771-1.939c-.802.688-1.825 1.186-2.943 1.551a980.577 980.577 0 0 1-.79-8.918c2.219 1.201 4.141 2.629 5.447 4.525-.159.992-.69 1.963-1.714 2.842zm7.326.586a6.387 6.387 0 0 1-1.1 2.367c.896-1.621 1.215-3.438 1.133-5.342.205.891.214 1.875-.033 2.975z" fill="#cfcfcf" opacity="1" data-original="#000000" class=""></path></g></svg>