<svg xmlns="http://www.w3.org/2000/svg" version="1.1" xmlns:xlink="http://www.w3.org/1999/xlink" width="512" height="512" x="0" y="0" viewBox="0 0 511.88 511.88" style="enable-background:new 0 0 512 512" xml:space="preserve" class=""><g><path d="M182.122 142.995h146.541V99.213a6.544 6.544 0 0 1 6.544-6.544h21.166c6.092 0 8.879-7.594 4.233-11.535-134.074-108.267-75.472-108.091-209.393.002-4.645 3.941-1.857 11.533 4.234 11.533h20.131a6.544 6.544 0 0 1 6.544 6.544zM181.09 416.227c-.049 128.458-16.211 87.925 131.671 94.533 9.353-.002 16.935-7.585 16.935-16.939v-77.594zM470.637 172.995H41.243c-10.796 0-19.548 8.752-19.548 19.548V366.68c0 10.796 8.752 19.548 19.548 19.548h429.394c10.796 0 19.548-8.752 19.548-19.548V192.543c0-10.796-8.752-19.548-19.548-19.548zM149.595 343.009c-18.82 16.051-48.753 11.089-62.056-9.891-4.579-6.904-2.694-16.212 4.21-20.791 18.123-9.755 18.558 9.77 31.235 10.274 9.589-.279 13.846-9.452 11.166-18.038-1.979-7.996-17.664-11.58-23.588-15.362-39.689-16.873-34.776-83.157 11.451-84.873 19.431-2.079 51.327 18.203 32.098 36.84-6.629 4.969-16.031 3.627-21.001-3.001-.707-.942-2.858-3.811-9.791-3.857-12.891.051-12.349 20.728-2.84 25.955 2.172 1.683 16.386 8.226 19.129 9.58 28.737 11.243 33.941 54.75 9.987 73.164zm100.002 9.867h-47.743c-8.284 0-15-6.716-15-15V220.962c0-8.284 6.716-15 15-15h44.284c8.284 0 15 6.716 15 15-.232 21.658-31.029 13.569-44.284 15v31.002c12.342-.183 29.797-2.272 30.445 15.001-.644 17.269-18.117 15.186-30.445 14.999v25.912h32.743c19.616.086 19.614 29.916 0 30zm87.554 0h-35.289c-8.284 0-15-6.716-15-15V220.962c.082-19.582 29.913-19.643 30 .001v101.913h20.289c19.618.086 19.614 29.916 0 30zm90.245 0h-35.289c-8.284 0-15-6.716-15-15V220.962c.082-19.582 29.913-19.643 30 .001v101.913h20.289c19.618.086 19.614 29.916 0 30z" fill="#dedede" opacity="1" data-original="#000000" class=""></path></g></svg>