<svg xmlns="http://www.w3.org/2000/svg" version="1.1" xmlns:xlink="http://www.w3.org/1999/xlink" width="512" height="512" x="0" y="0" viewBox="0 0 24 24" style="enable-background:new 0 0 512 512" xml:space="preserve" class=""><g><path fill="#cfcfcf" fill-rule="evenodd" d="M12 7.14a4.86 4.86 0 1 0 0 9.72 4.86 4.86 0 0 0 0-9.72Zm0 1.534a3.326 3.326 0 1 0 0 6.651 3.326 3.326 0 0 0 0-6.65Z" clip-rule="evenodd" opacity="1" data-original="#000000" class=""></path><path fill="#cfcfcf" fill-rule="evenodd" d="M9.433 2.021A1.383 1.383 0 0 1 10.76 1h2.398c.637 0 1.17.438 1.328 1.021l.003.011.443 1.843c.019.077.087.171.22.224.06.024.119.048.178.074.128.054.24.037.308-.003l1.55-.93a1.364 1.364 0 0 1 1.67.2l1.702 1.702c.447.447.52 1.135.2 1.669l-.93 1.55c-.041.067-.058.18-.004.308.026.06.05.12.075.182.053.132.146.2.223.219l1.83.449A1.358 1.358 0 0 1 23 10.84v2.398c0 .628-.433 1.18-1.045 1.322l-1.83.45c-.077.018-.17.086-.223.218-.024.061-.049.122-.075.182-.054.128-.037.24.003.308l.93 1.55c.32.534.248 1.222-.2 1.669l-1.702 1.703a1.364 1.364 0 0 1-1.669.2l-1.55-.93c-.067-.041-.18-.059-.308-.004a9.079 9.079 0 0 1-.184.076c-.131.052-.2.145-.219.222l-.439 1.766-.002.008A1.383 1.383 0 0 1 13.16 23h-2.398a1.383 1.383 0 0 1-1.328-1.021l-.002-.008-.44-1.766c-.019-.077-.087-.17-.218-.222a8.894 8.894 0 0 1-.184-.076c-.128-.055-.24-.037-.308.003l-1.55.93a1.364 1.364 0 0 1-1.669-.2l-1.703-1.702a1.364 1.364 0 0 1-.2-1.669l.93-1.55c.041-.067.058-.18.004-.308a8.336 8.336 0 0 1-.077-.187c-.052-.131-.144-.199-.22-.218l-1.754-.446A1.359 1.359 0 0 1 1 13.24v-2.4c0-.626.431-1.176 1.042-1.32l1.753-.446c.077-.02.169-.087.22-.218.026-.062.051-.125.078-.187.054-.128.037-.24-.003-.308l-.93-1.55a1.364 1.364 0 0 1 .2-1.67L5.061 3.44a1.364 1.364 0 0 1 1.669-.2l1.55.93c.067.041.18.058.308.004l.178-.074c.133-.053.201-.147.22-.224l.443-1.843.003-.01Zm1.046 2.212.409-1.698h2.144l.409 1.698c.15.622.607 1.078 1.142 1.291l.146.06c.523.224 1.16.226 1.7-.098l1.44-.865 1.51 1.51-.865 1.44a1.874 1.874 0 0 0-.099 1.7l.062.148c.212.533.665.99 1.282 1.141l1.706.419v2.122l-1.706.419a1.876 1.876 0 0 0-1.282 1.14c-.02.05-.04.1-.062.149a1.874 1.874 0 0 0 .1 1.7l.864 1.44-1.51 1.51-1.44-.865a1.874 1.874 0 0 0-1.7-.099l-.15.062c-.531.212-.987.662-1.14 1.277l-.405 1.631h-2.147l-.406-1.63a1.877 1.877 0 0 0-1.14-1.278c-.05-.02-.1-.04-.15-.062a1.874 1.874 0 0 0-1.7.099l-1.44.864-1.51-1.508.865-1.441c.324-.54.322-1.177.099-1.7a6.93 6.93 0 0 1-.063-.153 1.876 1.876 0 0 0-1.269-1.138l-1.638-.416v-2.124l1.638-.416a1.876 1.876 0 0 0 1.269-1.138l.063-.153a1.874 1.874 0 0 0-.099-1.7l-.865-1.44 1.51-1.51 1.44.865c.54.324 1.177.322 1.7.099.048-.021.097-.041.146-.06.535-.214.993-.67 1.142-1.292Z" clip-rule="evenodd" opacity="1" data-original="#000000" class=""></path></g></svg>