<svg xmlns="http://www.w3.org/2000/svg" version="1.1" xmlns:xlink="http://www.w3.org/1999/xlink" width="512" height="512" x="0" y="0" viewBox="0 0 512 512" style="enable-background:new 0 0 512 512" xml:space="preserve" class=""><g><path d="m139.237 165.092-72.492-41.853M423.866 135.588l-49.302 28.465M345.788 165.941 166.686 62.536M256 335.522v160.414M159.859 400.879l56.81 32.799M448.841 162.118v-24.732M63.159 332.166v53.52c0 5.047 2.693 9.711 7.064 12.235l178.714 103.181a14.127 14.127 0 0 0 14.128 0l178.714-103.181a14.129 14.129 0 0 0 7.064-12.235v-53.293M376.147 79.198 263.064 13.91a14.127 14.127 0 0 0-14.128 0L70.222 117.09a14.127 14.127 0 0 0-7.064 12.235v34.947" style="stroke-width:15;stroke-linecap:round;stroke-linejoin:round;stroke-miterlimit:10;" fill="none" stroke="#dedede" stroke-width="15" stroke-linecap="round" stroke-linejoin="round" stroke-miterlimit="10" data-original="#000000" opacity="1" class=""></path><path d="m347.269 392.727-47.594 27.508v59.729l100.719-58.15v-59.791l-26.619 15.385M7.5 332.394l55.658 42.042v-42.042zM504.5 332.394l-55.658 42.042v-42.042zM84.575 279.351v-59.923l40.514 58.666c.751 1.085 1.556.554 1.556-.766l-.561-58.012M418.287 219.315v60.036M450.581 220.073l-30.373 27.918 32.505 31.36M59.287 219.315v60.036M395.376 224.442a29.875 29.875 0 0 0-16.783-5.127c-16.578 0-30.018 13.439-30.018 30.018s13.439 30.018 30.018 30.018c6.733 0 12.271-2.217 16.475-5.96a24.019 24.019 0 0 0 2.436-2.514M197.466 225.487s-10.773-9.055-23.476-5.229c-11.664 3.514-13.296 16.964-4.857 22.466 0 0 8.281 3.694 17.465 7.082 22.109 8.155 12.585 29.544-5.213 29.544-8.913 0-16.393-3.903-20.921-8.899M219.516 219.315h33.154M236.026 221.232v58.119" style="stroke-width:15;stroke-linecap:round;stroke-linejoin:round;stroke-miterlimit:10;" fill="none" stroke="#dedede" stroke-width="15" stroke-linecap="round" stroke-linejoin="round" stroke-miterlimit="10" data-original="#000000" opacity="1" class=""></path><circle cx="295.681" cy="249.333" r="30.018" style="stroke-width:15;stroke-linecap:round;stroke-linejoin:round;stroke-miterlimit:10;" fill="none" stroke="#dedede" stroke-width="15" stroke-linecap="round" stroke-linejoin="round" stroke-miterlimit="10" data-original="#000000" opacity="1" class=""></circle><path d="M113.575 332.394H504.5V172.256a5.984 5.984 0 0 0-5.984-5.984H13.484a5.984 5.984 0 0 0-5.984 5.984v160.137h77.075M417.458 72.782l16.253 16.524 31.248-34.018" style="stroke-width:15;stroke-linecap:round;stroke-linejoin:round;stroke-miterlimit:10;" fill="none" stroke="#dedede" stroke-width="15" stroke-linecap="round" stroke-linejoin="round" stroke-miterlimit="10" data-original="#000000" opacity="1" class=""></path><path d="M385.472 42.294c-4.817 8.929-7.554 19.146-7.554 30.003 0 34.955 28.337 63.291 63.291 63.291S504.5 107.252 504.5 72.297 476.163 9.006 441.209 9.006c-13.593 0-26.173 4.299-36.487 11.592" style="stroke-width:15;stroke-linecap:round;stroke-linejoin:round;stroke-miterlimit:10;" fill="none" stroke="#dedede" stroke-width="15" stroke-linecap="round" stroke-linejoin="round" stroke-miterlimit="10" data-original="#000000" opacity="1" class=""></path></g></svg>