<svg xmlns="http://www.w3.org/2000/svg" version="1.1" xmlns:xlink="http://www.w3.org/1999/xlink" width="512" height="512" x="0" y="0" viewBox="0 0 512 512" style="enable-background:new 0 0 512 512" xml:space="preserve"><g><path d="M325.593 205.497v127.485a8 8 0 0 1-8 8h-44.856a8 8 0 0 1-8-8V205.497a8 8 0 0 1 8-8h44.856a8 8 0 0 1 8 8zm-164.662 41.351h-44.855a8 8 0 0 0-8 8v78.134a8 8 0 0 0 8 8h44.855a8 8 0 0 0 8-8v-78.134a8 8 0 0 0-8-8zm-27.305-39.487a7.966 7.966 0 0 0 4.872 1.659 7.989 7.989 0 0 0 6.347-3.123l73.762-95.902 72.105 48.319a8 8 0 0 0 9.88-.768l64.36-59.422-1.871 10.298a8 8 0 0 0 7.88 9.431 8.003 8.003 0 0 0 7.862-6.571l5.909-32.525a8.003 8.003 0 0 0-7.494-9.421l-33.02-1.555c-4.428-.203-8.16 3.201-8.368 7.615a8 8 0 0 0 7.615 8.368l12.801.603-61.89 57.142-73.088-48.978a7.999 7.999 0 0 0-10.795 1.768l-78.331 101.843a8.001 8.001 0 0 0 1.464 11.219zm262.298-82.185h-44.855a8 8 0 0 0-8 8v199.806a8 8 0 0 0 8 8h44.855a8 8 0 0 0 8-8V133.176a8 8 0 0 0-8-8zM511 70.743v310.451c0 18.631-15.158 33.79-33.79 33.79H363.005l24.479 42.008c2.193 3.765 2.221 8.242.074 11.978-2.154 3.748-6.157 6.076-10.449 6.076H134.89c-4.292 0-8.296-2.328-10.45-6.076-2.147-3.736-2.119-8.214.074-11.978l24.481-42.008H34.79c-18.631 0-33.79-15.158-33.79-33.79V70.743c0-18.631 15.158-33.789 33.79-33.789h442.42c18.632 0 33.79 15.158 33.79 33.789zM344.487 414.984H167.514l-25.678 44.062h228.326zM495 70.743c0-9.809-7.98-17.789-17.79-17.789H34.79c-9.809 0-17.79 7.98-17.79 17.789v285.058h478zM239.262 160.26h-44.855a8 8 0 0 0-8 8v164.723a8 8 0 0 0 8 8h44.855a8 8 0 0 0 8-8V168.26a8 8 0 0 0-8-8z" fill="#cfcfcf" opacity="1" data-original="#000000"></path></g></svg>