<svg xmlns="http://www.w3.org/2000/svg" version="1.1" xmlns:xlink="http://www.w3.org/1999/xlink" width="512" height="512" x="0" y="0" viewBox="0 0 64 64" style="enable-background:new 0 0 512 512" xml:space="preserve" class=""><g><path d="M58.96 58.01H5.04a1 1 0 0 0 0 2h53.92a1 1 0 0 0 0-2zM17.4 38.98a1.003 1.003 0 0 0-1 1v16.03h9.3V39.98a1.003 1.003 0 0 0-1-1zM6.46 47.01a.99.99 0 0 0-1 1v8h9.29v-8a.99.99 0 0 0-1-1zM28.35 31.68a1.003 1.003 0 0 0-1 1v23.33h9.3V32.68a1.003 1.003 0 0 0-1-1zM39.3 38.98a1.003 1.003 0 0 0-1 1v16.03h9.3V39.98a1.003 1.003 0 0 0-1-1zM49.25 29.03v26.98h9.29V29.03a.997.997 0 0 0-1-1h-7.29a.997.997 0 0 0-1 1z" fill="#2197c5" opacity="1" data-original="#000000" class=""></path><path d="M23.2 28.56a3.198 3.198 0 0 0-2.15-.81 3.271 3.271 0 0 0-3.09 4.37L12 36.65a3.223 3.223 0 0 0-1.89-.6 3.292 3.292 0 1 0 3.09 2.19l5.97-4.52a3.282 3.282 0 0 0 5.16-2.69 2.733 2.733 0 0 0-.1-.76l5.63-3.41a3.26 3.26 0 0 0 4.29-.01l5.62 3.42a2.733 2.733 0 0 0-.1.76 3.28 3.28 0 1 0 6.56 0 3.173 3.173 0 0 0-.37-1.5l7.57-7.57v1.48a1 1 0 1 0 2 0v-4.01a.997.997 0 0 0-1-1h-4a1 1 0 0 0 0 2h1.71l-7.69 7.69a3.245 3.245 0 0 0-3.65.44l-5.62-3.41a2.855 2.855 0 0 0 .1-.77 3.28 3.28 0 0 0-6.56 0 2.855 2.855 0 0 0 .1.77zM16.02 27.02a11.505 11.505 0 1 0-11.5-11.5 11.517 11.517 0 0 0 11.5 11.5zm.25-10.5a3.503 3.503 0 0 1-1-6.86V8.01a1 1 0 0 1 2 0v1.65a3.507 3.507 0 0 1 2.5 3.35 1 1 0 0 1-2 0 1.5 1.5 0 1 0-1.5 1.51 3.498 3.498 0 0 1 1 6.85v1.65a1 1 0 0 1-2 0v-1.65a3.507 3.507 0 0 1-2.5-3.35 1 1 0 0 1 2 0 1.5 1.5 0 1 0 1.5-1.5z" fill="#2197c5" opacity="1" data-original="#000000" class=""></path></g></svg>